<?xml version="1.0" encoding="utf-8"?>
<?xml-stylesheet type="text/xsl" href="rss1.xsl"?>
<rss version="2.0" xmlns:atom="http://www.w3.org/2005/Atom" xmlns:content="http://purl.org/rss/1.0/modules/content/" xmlns:dc="http://purl.org/dc/elements/1.1/" xmlns:media="http://search.yahoo.com/mrss/">
<channel>
 <title>Getty</title>
 <link>http://www.gettyimg.com/</link>
 <atom:link href="http://www.gettyimg.com/" rel="self" type="application/rss+xml" />

 
                <item>
                <title><![CDATA[【Live Audios (lossy)】MP3 - Charli XCX - So I (Live at Billboard Women in Music 2024) [Remastered]]]></title>
                <link><![CDATA[https://sharemania.us/threads/charli-xcx-so-i-live-at-billboard-women-in-music-2024-remastered.239639/]]></link>
                <description><![CDATA[<article>
<blockquote class="messageText SelectQuoteContainer ugc baseHtml">
Ripped from the Youtube upload (128kbps) and remastered for easier enjoyment!<br>
<br>
<div class="bbCodeBlock bbCodeVfcHH HiddenContent">
<div class="attribution type">Hidden Content:</div>
<blockquote>You must reply before you can see the hidden data contained here.</blockquote>
</div>
<div class="messageTextEndMarker">&nbsp;</div>
</blockquote>
</article>]]></description>
                <author><![CDATA[lum]]></author>
                </item>

                
                <item>
                <title><![CDATA[【MASTER &amp; MASTER RIP】MASTER - Kimbra - Replay [Master 4K]]]></title>
                <link><![CDATA[https://sharemania.us/threads/kimbra-replay-master-4k.239637/]]></link>
                <description><![CDATA[<article>
<blockquote class="messageText SelectQuoteContainer ugc baseHtml">
<div style="text-align: center"><img src="https://i.ibb.co/BzMQwzn/20240309235106.gif" class="bbCodeImage LbImage" alt="[​IMG]" data-url="https://i.ibb.co/BzMQwzn/20240309235106.gif" style=""><br>
​</div>
<div class="ToggleTriggerAnchor bbCodeSpoilerContainer">
<button type="button" class="button bbCodeSpoilerButton ToggleTrigger Tooltip JsOnly" data-target="> .SpoilerTarget"><span>Spoiler: <span class="SpoilerTitle">MASTER</span></span></button>
<div class="SpoilerTarget bbCodeSpoilerText">
<div class="bbCodeBlock bbCodeCode">
<div class="type">Code:</div>
<pre>General
Complete name                            : KIMBRA - REPLAY.mp4
Format                                   : MPEG-4
Format profile                           : Base Media / Version 2
Codec ID                                 : mp42 (mp42/mp41)
File size                                : 1.39 GiB
Duration                                 : 3 min 57 s
Overall bit rate mode                    : Variable
Overall bit rate                         : 50.4 Mb/s
Frame rate                               : 24.000 FPS
Encoded date                             : 2022-11-13 18:54:05 UTC
Tagged date                              : 2022-11-13 19:01:28 UTC
TIM                                      : 00:00:00:00
TSC                                      : 24
TSZ                                      : 1

Video
ID                                       : 1
Format                                   : AVC
Format/Info                              : Advanced Video Codec
Format profile                           : Main@L5.1
Format settings                          : CABAC / 4 Ref Frames
Format settings, CABAC                   : Yes
Format settings, Reference frames        : 4 frames
Codec ID                                 : avc1
Codec ID/Info                            : Advanced Video Coding
Duration                                 : 3 min 57 s
Bit rate mode                            : Constant
Bit rate                                 : 50.0 Mb/s
Width                                    : 2 880 pixels
Height                                   : 2 160 pixels
Display aspect ratio                     : 4:3
Frame rate mode                          : Constant
Frame rate                               : 24.000 FPS
Color space                              : YUV
Chroma subsampling                       : 4:2:0
Bit depth                                : 8 bits
Scan type                                : Progressive
Bits/(Pixel*Frame)                       : 0.335
Stream size                              : 1.38 GiB (99%)
Language                                 : English
Encoded date                             : 2022-11-13 18:54:06 UTC
Tagged date                              : 2022-11-13 18:54:06 UTC
Color range                              : Limited
Color primaries                          : BT.709
Transfer characteristics                 : BT.709
Matrix coefficients                      : BT.709
Codec configuration box                  : avcC

Audio
ID                                       : 2
Format                                   : AAC LC
Format/Info                              : Advanced Audio Codec Low Complexity
Codec ID                                 : 2 / 40 / mp4a-40-2
Duration                                 : 3 min 57 s
Source duration                          : 3 min 57 s
Bit rate mode                            : Variable
Bit rate                                 : 317 kb/s
Maximum bit rate                         : 472 kb/s
Channel(s)                               : 2 channels
Channel layout                           : L R
Sampling rate                            : 48.0 kHz
Frame rate                               : 46.875 FPS (1024 SPF)
Compression mode                         : Lossy
Stream size                              : 8.98 MiB (1%)
Source stream size                       : 8.98 MiB (1%)
Language                                 : English
Encoded date                             : 2022-11-13 18:54:06 UTC
Tagged date                              : 2022-11-13 18:54:06 UTC

</pre>
</div><div style="text-align: center">​</div></div>
</div><div style="text-align: center"><br>
<div class="bbCodeBlock bbCodeVfcHH HiddenContent">
<div class="attribution type">Hidden Content:</div>
<blockquote>You must reply before you can see the hidden data contained here.</blockquote>
</div></div>
<div class="messageTextEndMarker">&nbsp;</div>
</blockquote>
</article>]]></description>
                <author><![CDATA[fstambuk]]></author>
                </item>

                
                <item>
                <title><![CDATA[【Albums (lossy)】Dolby Atmos - Beyoncé - I Am...World Tour | Dolby Atmos | E-AC3 | 5.1 | 32bit/48kHz | 448kbits]]></title>
                <link><![CDATA[https://sharemania.us/threads/beyonc%C3%A9-i-am-world-tour-dolby-atmos-e-ac3-5-1-32bit-48khz-448kbits.239638/]]></link>
                <description><![CDATA[<article>
<blockquote class="messageText SelectQuoteContainer ugc baseHtml">
<img src="https://i.imgur.com/Wm2PHxM.jpg" class="bbCodeImage LbImage" alt="[​IMG]" data-url="https://i.imgur.com/Wm2PHxM.jpg" style=""><br>
<br>
<b>unfortunately it doesn't exist in Dolby Atmos (E-AC3) in any streaming, only on the original DVD at 448 kbps with E-AC3, so I extracted the audio from the DVD and exported it in E-AC3 for each song (it took a LONG time).</b><br>
<b><br>
Credits:</b> <a href="https://sharemania.us/members/jraleixo.120987/" class="internalLink">https://sharemania.us/members/jraleixo.120987/</a> (<b>DVD RIP file)</b><br>
<br>
<b>Tracklist:<br>
<br>
1. "Intro"<br>
2. "Crazy in Love" (featuring Jay-Z)<br>
3. "Naughty Girl"<br>
4. "Freakum Dress"<br>
5. "Get Me Bodied"<br>
6. "Smash into You"<br>
7. "Ave Maria"<br>
8. "Broken-Hearted Girl"<br>
9. "If I Were a Boy"<br>
10. "Diva"<br>
11. "Radio"<br>
12. "Ego" (feat Kanye West)<br>
13. "Hello"<br>
14. "Baby Boy"<br>
15. "<b>You Don't Love Me, No No No"<br>
16. " Irreplaceable"<br>
17. "Check On It"<br>
18. " Bootylicious"<br>
19. "Upgrade U"<br>
20. "VideoPhone"<br>
21. "Say My Name"<br>
22. "At Last"<br>
23. "Listen"<br>
24. "Single Ladies"<br>
25. "Halo"<br>
</b></b><br>
<div class="bbCodeBlock bbCodeVfcHH HiddenContent">
<div class="attribution type">Hidden Content:</div>
<blockquote>You must reply before you can see the hidden data contained here.</blockquote>
</div>
<div class="bbCodeBlock bbCodeVfcHH HiddenContent">
<div class="attribution type">Hidden Content:</div>
<blockquote>You must reply before you can see the hidden data contained here.</blockquote>
</div>
<div class="messageTextEndMarker">&nbsp;</div>
</blockquote>
</article>]]></description>
                <author><![CDATA[Kauan0606]]></author>
                </item>

                </channel></rss>